<svg width="512" height="512" viewBox="0 0 512 512" fill="none" xmlns="http://www.w3.org/2000/svg">
  <rect width="512" height="512" rx="128" fill="#020617"/>
  <rect x="56" y="56" width="400" height="400" rx="96" fill="url(#paint0_linear)"/>
  <path d="M155 303C155 245.562 201.562 199 259 199H266C323.438 199 370 245.562 370 303V320C370 336.569 356.569 350 340 350H185C168.431 350 155 336.569 155 320V303Z" fill="#0F172A" fill-opacity="0.92"/>
  <path d="M196 266C196 234.52 221.52 209 253 209H272C303.48 209 329 234.52 329 266V282H196V266Z" fill="#F8FAFC" fill-opacity="0.95"/>
  <circle cx="207" cy="331" r="34" fill="#F8FAFC"/>
  <circle cx="316" cy="331" r="34" fill="#F8FAFC"/>
  <path d="M163 164H257C311.124 164 355 207.876 355 262V262H163V164Z" fill="#020617" fill-opacity="0.88"/>
  <path d="M212 124H300C328.719 124 352 147.281 352 176V176H212V124Z" fill="#E2E8F0" fill-opacity="0.95"/>
  <defs>
    <linearGradient id="paint0_linear" x1="56" y1="56" x2="456" y2="456" gradientUnits="userSpaceOnUse">
      <stop stop-color="#0EA5E9"/>
      <stop offset="1" stop-color="#10B981"/>
    </linearGradient>
  </defs>
</svg>
